<svg width="47" height="43" viewBox="0 0 47 43" fill="none" xmlns="http://www.w3.org/2000/svg">
<path d="M36.0957 11.5262C30.581 11.5262 26.0957 16.0117 26.0957 21.5263C26.0957 27.0408 30.5811 31.5263 36.0957 31.5263C41.6103 31.5263 46.0957 27.0408 46.0957 21.5263C46.0957 16.0117 41.6103 11.5262 36.0957 11.5262ZM40.0187 24.2703L38.8395 25.4494L36.0958 22.7057L33.352 25.4494L32.1729 24.2703L34.9166 21.5265L32.1729 18.7828L33.352 17.6036L36.0958 20.3474L38.8395 17.6036L40.0187 18.7828L37.2749 21.5265L40.0187 24.2703Z" fill="white"/>
<path d="M24.4291 21.5265C24.4291 15.0935 29.6624 9.85985 36.0958 9.85985C36.377 9.85985 36.6521 9.88277 36.9291 9.90152V2.55165C36.9291 1.1725 35.8083 0.0516422 34.4291 0.0516422H30.8062C30 0.0491126 29.042 0.0504555 28.458 0.0498047L25 -0.000976562H12.5L7.5 0.00131437C7.14797 0.0525043 6.5 -0.000976562 6.12294 0.0516422H2.5C1.12085 0.0516422 0 1.1725 0 2.55165V40.5016C0 41.8807 1.12085 43.0016 2.5 43.0016H34.4291C35.8083 43.0016 36.9291 41.8807 36.9291 40.5016V33.1517C36.652 33.1704 36.377 33.1934 36.0958 33.1934C29.6627 33.1934 24.4291 27.9599 24.4291 21.5265ZM5.13094 8.98252H31.7976V10.6492H5.13094V8.98252ZM5.13094 14.3281H23.4643V15.9948L5.13094 15.9969V14.3281ZM18.4643 21.3404V19.6737H23.4643V21.3404H18.4643ZM23.4643 25.0196V26.6862H11.0227V25.0196H23.4643ZM5.13094 19.674H15.8979V21.3406L5.13094 21.3427V19.674ZM5.13094 25.0196H8.5726V26.6862H5.13094V25.0196ZM5.13094 30.3652H25.964V32.0318L5.13094 32.036V30.3652ZM31.7976 37.3774L5.13094 37.3816V35.7149H31.7976V37.3816V37.3774Z" fill="white"/>
</svg>
